<svg width="23" height="17" viewBox="0 0 23 17" fill="none" xmlns="http://www.w3.org/2000/svg">
<path d="M6 16.5C4.48333 16.5 3.1875 15.975 2.1125 14.925C1.0375 13.875 0.5 12.5917 0.5 11.075C0.5 9.775 0.891667 8.61667 1.675 7.6C2.45833 6.58333 3.48333 5.93333 4.75 5.65C5.16667 4.11667 6 2.875 7.25 1.925C8.5 0.975 9.91667 0.5 11.5 0.5C13.45 0.5 15.1042 1.17917 16.4625 2.5375C17.8208 3.89583 18.5 5.55 18.5 7.5C19.65 7.63333 20.6042 8.12917 21.3625 8.9875C22.1208 9.84583 22.5 10.85 22.5 12C22.5 13.25 22.0625 14.3125 21.1875 15.1875C20.3125 16.0625 19.25 16.5 18 16.5H12.5C11.95 16.5 11.4792 16.3042 11.0875 15.9125C10.6958 15.5208 10.5 15.05 10.5 14.5V9.35L8.9 10.9L7.5 9.5L11.5 5.5L15.5 9.5L14.1 10.9L12.5 9.35V14.5H18C18.7 14.5 19.2917 14.2583 19.775 13.775C20.2583 13.2917 20.5 12.7 20.5 12C20.5 11.3 20.2583 10.7083 19.775 10.225C19.2917 9.74167 18.7 9.5 18 9.5H16.5V7.5C16.5 6.11667 16.0125 4.9375 15.0375 3.9625C14.0625 2.9875 12.8833 2.5 11.5 2.5C10.1167 2.5 8.9375 2.9875 7.9625 3.9625C6.9875 4.9375 6.5 6.11667 6.5 7.5H6C5.03333 7.5 4.20833 7.84167 3.525 8.525C2.84167 9.20833 2.5 10.0333 2.5 11C2.5 11.9667 2.84167 12.7917 3.525 13.475C4.20833 14.1583 5.03333 14.5 6 14.5H8.5V16.5H6Z" fill="#1C1B1F"/>
</svg>
