<svg width="17" height="20" viewBox="0 0 17 20" fill="none" xmlns="http://www.w3.org/2000/svg">
<path d="M8.28809 10C8.83809 10 9.30892 9.80417 9.70059 9.4125C10.0923 9.02083 10.2881 8.55 10.2881 8C10.2881 7.45 10.0923 6.97917 9.70059 6.5875C9.30892 6.19583 8.83809 6 8.28809 6C7.73809 6 7.26725 6.19583 6.87559 6.5875C6.48392 6.97917 6.28809 7.45 6.28809 8C6.28809 8.55 6.48392 9.02083 6.87559 9.4125C7.26725 9.80417 7.73809 10 8.28809 10ZM8.28809 17.35C10.3214 15.4833 11.8298 13.7875 12.8131 12.2625C13.7964 10.7375 14.2881 9.38333 14.2881 8.2C14.2881 6.38333 13.7089 4.89583 12.5506 3.7375C11.3923 2.57917 9.97142 2 8.28809 2C6.60475 2 5.18392 2.57917 4.02559 3.7375C2.86725 4.89583 2.28809 6.38333 2.28809 8.2C2.28809 9.38333 2.77975 10.7375 3.76309 12.2625C4.74642 13.7875 6.25475 15.4833 8.28809 17.35ZM8.28809 20C5.60475 17.7167 3.60059 15.5958 2.27559 13.6375C0.950586 11.6792 0.288086 9.86667 0.288086 8.2C0.288086 5.7 1.09225 3.70833 2.70059 2.225C4.30892 0.741667 6.17142 0 8.28809 0C10.4048 0 12.2673 0.741667 13.8756 2.225C15.4839 3.70833 16.2881 5.7 16.2881 8.2C16.2881 9.86667 15.6256 11.6792 14.3006 13.6375C12.9756 15.5958 10.9714 17.7167 8.28809 20Z" fill="#6A7789"/>
</svg>
